# File created by Blade
# Date/Time:  Tue Apr 07 20:13:55 2015
# Frame Rate: 120.000 fps
#------------------------------------------------------
:FULLY-SPECIFIED
:DEGREES
2804
root 1.761953 32.424306 -7.423397 11.088768 13.353680 -2.764167
Spine 1.827854 -14.414102 -2.603462
Head 22.409376 -14.577403 10.593591
LeftShoulder -11.779149 45.729071 11.764940
LeftArm 54.383872 11.653731 -81.415339
LeftForeArm -46.081904 -0.000000 27.947360
LeftHand 4.953385 -0.000000 -2.077712
LeftHandThumb1 -26.253704 0.000000 33.147579
RightShoulder -6.845647 -13.773582 -15.708329
RightArm 9.080565 -5.028545 86.231342
RightForeArm 14.542182 -0.000000 51.597059
RightHand 6.007998 -0.000000 -6.002484
RightHandThumb1 -24.326973 -0.000000 -32.862282
LeftUpLeg -15.419611 -6.637855 2.274302
LeftLeg 18.725626 -0.000000 -0.000000
LeftFoot -16.917289 7.074564 -15.646773
LeftToeBase -10.363541 -0.000000 0.000000
RightUpLeg -36.508300 -6.135511 2.880282
RightLeg 43.169631 -0.000000 -0.000000
RightFoot -11.843994 -17.235586 9.712657
RightToeBase -2.779154 -0.000000 0.000000
2805
root 1.751328 32.441821 -7.487201 11.271032 13.049580 -2.885046
Spine 1.514457 -14.227081 -2.588947
Head 21.753597 -14.761494 11.128130
LeftShoulder -11.787004 45.706384 11.846946
LeftArm 54.426018 11.726334 -81.221958
LeftForeArm -44.657452 -0.000000 28.035035
LeftHand 5.039171 0.000000 -1.376289
LeftHandThumb1 -26.253704 0.000000 33.147579
RightShoulder -6.731223 -13.596359 -15.757829
RightArm 9.035234 -4.891220 86.165230
RightForeArm 14.628662 0.000000 51.539115
RightHand 6.053113 -0.000000 -6.123622
RightHandThumb1 -24.326973 -0.000000 -32.862282
LeftUpLeg -15.732418 -6.307513 2.368582
LeftLeg 18.737175 -0.000000 -0.000000
LeftFoot -16.721956 7.153467 -15.459211
LeftToeBase -10.205094 -0.000000 0.000000
RightUpLeg -36.316682 -6.061131 3.293185
RightLeg 43.914487 -0.000000 -0.000000
RightFoot -12.511768 -16.921936 9.964128
RightToeBase -2.903529 -0.000000 0.000000
2806
root 1.729364 32.461278 -7.552989 11.499839 12.677926 -3.058185
Spine 1.148883 -13.905336 -2.544244
Head 21.051496 -14.999583 11.724300
LeftShoulder -11.707814 45.672984 11.997563
LeftArm 54.517243 11.844108 -80.909574
LeftForeArm -43.172124 0.000000 28.094346
LeftHand 5.240391 -0.000000 -0.814382
LeftHandThumb1 -26.253704 0.000000 33.147579
RightShoulder -6.683272 -13.465691 -15.766396
RightArm 9.054273 -4.777736 86.114402
RightForeArm 14.623471 -0.000000 51.449083
RightHand 5.978388 -0.000000 -6.173064
RightHandThumb1 -24.326973 -0.000000 -32.862282
LeftUpLeg -16.087611 -5.852502 2.522777
LeftLeg 18.721402 -0.000000 -0.000000
LeftFoot -16.513547 7.074447 -15.513578
LeftToeBase -10.086647 -0.000000 0.000000
RightUpLeg -36.114063 -5.833300 3.728850
RightLeg 44.474515 -0.000000 -0.000000
RightFoot -13.094135 -16.707127 10.137363
RightToeBase -3.077119 -0.000000 0.000000
2807
root 1.714972 32.478968 -7.615027 11.715335 12.337297 -3.176149
Spine 0.814477 -13.669430 -2.528804
Head 20.302770 -15.159555 12.300546
LeftShoulder -11.713933 45.632986 12.066065
LeftArm 54.634729 11.972014 -80.623474
LeftForeArm -41.360139 -0.000000 28.106214
LeftHand 5.365783 0.000000 -0.178544
LeftHandThumb1 -26.253704 0.000000 33.147579
RightShoulder -6.575082 -13.305297 -15.832338
RightArm 9.055508 -4.712883 86.068258
RightForeArm 14.735692 0.000000 51.356556
RightHand 6.093349 -0.000000 -6.399997
RightHandThumb1 -24.326973 -0.000000 -32.862282
LeftUpLeg -16.385178 -5.479427 2.614364
LeftLeg 18.661206 -0.000000 -0.000000
LeftFoot -16.311814 7.033622 -15.582183
LeftToeBase -10.074289 -0.000000 0.000000
RightUpLeg -35.860959 -5.695705 4.115150
RightLeg 44.958911 -0.000000 -0.000000
RightFoot -13.638999 -16.568187 10.289464
RightToeBase -3.041896 -0.000000 0.000000
2808
root 1.700837 32.497659 -7.672889 11.930532 12.044530 -3.307616
Spine 0.459831 -13.457044 -2.466472
Head 19.552139 -15.327116 12.836484
LeftShoulder -11.669297 45.603172 12.128548
LeftArm 54.778699 12.107289 -80.289570
LeftForeArm -39.332976 -0.000000 28.074766
LeftHand 5.563065 -0.000000 0.322318
LeftHandThumb1 -26.253704 0.000000 33.147579
RightShoulder -6.446054 -13.183143 -15.912410
RightArm 9.088897 -4.653107 86.022455
RightForeArm 14.785292 -0.000000 51.221340
RightHand 6.226055 0.000000 -6.666530
RightHandThumb1 -24.326973 -0.000000 -32.862282
LeftUpLeg -16.658726 -5.180614 2.733280
LeftLeg 18.560268 -0.000000 -0.000000
LeftFoot -16.308698 7.013527 -15.874977
LeftToeBase -9.156992 -0.000000 0.000000
RightUpLeg -35.523867 -5.589925 4.501933
RightLeg 45.244058 -0.000000 -0.000000
RightFoot -14.226863 -16.482449 10.615546
RightToeBase -2.975409 -0.000000 0.000000
2809
root 1.693128 32.513518 -7.728526 12.158531 11.737259 -3.352231
Spine 0.113571 -13.262741 -2.476355
Head 18.760457 -15.448289 13.323372
LeftShoulder -11.628563 45.523739 12.170354
LeftArm 54.922689 12.332491 -79.888304
LeftForeArm -37.702531 -0.000000 28.039323
LeftHand 5.912973 -0.000000 1.331206
LeftHandThumb1 -26.253704 0.000000 33.147579
RightShoulder -6.303466 -12.994201 -16.046128
RightArm 9.074632 -4.634405 86.019939
RightForeArm 14.835210 -0.000000 51.064661
RightHand 6.103895 0.000000 -6.559419
RightHandThumb1 -24.326973 -0.000000 -32.862282
LeftUpLeg -16.896742 -4.906951 2.745671
LeftLeg 18.388272 -0.000000 -0.000000
LeftFoot -16.051371 7.067988 -15.825143
LeftToeBase -9.480334 -0.000000 0.000000
RightUpLeg -35.222786 -5.563276 4.804280
RightLeg 45.561051 -0.000000 -0.000000
RightFoot -14.747834 -16.534681 10.798970
RightToeBase -2.719584 -0.000000 0.000000
2810
root 1.683878 32.530156 -7.784426 12.396430 11.424095 -3.421859
Spine -0.242859 -13.041353 -2.445867
Head 17.935827 -15.580872 13.783777
LeftShoulder -11.594712 45.453982 12.169443
LeftArm 55.115969 12.575156 -79.421947
LeftForeArm -35.944105 -0.000000 27.981971
LeftHand 6.119392 0.000000 2.270961
LeftHandThumb1 -26.253704 0.000000 33.147579
RightShoulder -6.176501 -12.892813 -16.174227
RightArm 9.178393 -4.665683 86.011292
RightForeArm 14.877870 -0.000000 50.856212
RightHand 6.207424 0.000000 -6.796770
RightHandThumb1 -24.326973 -0.000000 -32.862282
LeftUpLeg -17.119706 -4.688059 2.789417
LeftLeg 18.190202 -0.000000 -0.000000
LeftFoot -15.797030 7.201835 -15.736354
LeftToeBase -9.768795 -0.000000 0.000000
RightUpLeg -34.857438 -5.497291 5.112473
RightLeg 45.634093 -0.000000 -0.000000
RightFoot -15.208558 -16.670142 10.992969
RightToeBase -2.643015 -0.000000 0.000000
2811
root 1.675377 32.547654 -7.839132 12.655390 11.056910 -3.451263
Spine -0.613327 -12.773266 -2.467664
Head 17.108374 -15.686100 14.241885
LeftShoulder -11.523180 45.370665 12.217889
LeftArm 55.331131 12.802275 -79.096965
LeftForeArm -34.199944 -0.000000 27.760712
LeftHand 6.362988 0.000000 3.111035
LeftHandThumb1 -26.253704 0.000000 33.147579
RightShoulder -6.032674 -12.745388 -16.295339
RightArm 9.243916 -4.671344 86.017676
RightForeArm 14.877259 -0.000000 50.657263
RightHand 6.132720 -0.000000 -6.878986
RightHandThumb1 -24.326973 -0.000000 -32.862282
LeftUpLeg -17.299851 -4.466746 2.782319
LeftLeg 17.883341 -0.000000 -0.000000
LeftFoot -15.470566 7.458189 -15.513609
LeftToeBase -10.273456 -0.000000 0.000000
RightUpLeg -34.470623 -5.382037 5.352679
RightLeg 45.581833 -0.000000 -0.000000
RightFoot -15.620107 -16.819554 11.191913
RightToeBase -2.484419 -0.000000 0.000000
2812
root 1.666863 32.565925 -7.895191 12.924555 10.667236 -3.441748
Spine -0.968194 -12.483268 -2.530967
Head 16.223804 -15.774127 14.677870
LeftShoulder -11.440515 45.286027 12.253697
LeftArm 55.567925 13.054779 -78.718689
LeftForeArm -32.655205 0.000000 27.546566
LeftHand 6.639836 -0.000000 3.834498
LeftHandThumb1 -26.253704 0.000000 33.147579
RightShoulder -5.896697 -12.506964 -16.461829
RightArm 9.279189 -4.519753 86.195851
RightForeArm 14.641173 0.000000 50.327924
RightHand 6.038282 -0.000000 -6.630303
RightHandThumb1 -24.326973 -0.000000 -32.862282
LeftUpLeg -17.446120 -4.376323 2.772109
LeftLeg 17.516822 -0.000000 -0.000000
LeftFoot -15.442147 7.604931 -15.890566
LeftToeBase -9.335664 -0.000000 0.000000
RightUpLeg -34.052398 -5.277673 5.540592
RightLeg 45.354080 -0.000000 -0.000000
RightFoot -15.920411 -16.956545 11.360758
RightToeBase -2.403516 -0.000000 0.000000
2813
root 1.661779 32.584398 -7.950560 13.220691 10.359240 -3.469588
Spine -1.366815 -12.313858 -2.486619
Head 15.361041 -15.799515 15.007764
LeftShoulder -11.366595 45.141120 12.255764
LeftArm 55.734462 13.356748 -78.389620
LeftForeArm -31.258875 -0.000000 27.304653
LeftHand 6.902451 -0.000000 4.562510
LeftHandThumb1 -26.253704 0.000000 33.147579
RightShoulder -5.716850 -12.349751 -16.618126
RightArm 9.384422 -4.575441 86.207360
RightForeArm 14.728830 0.000000 50.023515
RightHand 6.312673 -0.000000 -6.625535
RightHandThumb1 -24.326973 -0.000000 -32.862282
LeftUpLeg -17.602681 -4.420209 2.819035
LeftLeg 17.073188 -0.000000 -0.000000
LeftFoot -15.261965 7.947940 -16.028518
LeftToeBase -9.474499 -0.000000 0.000000
RightUpLeg -33.621842 -5.261477 5.765037
RightLeg 44.929957 -0.000000 -0.000000
RightFoot -16.209938 -17.038886 11.679654
RightToeBase -1.953632 -0.000000 0.000000
